<mxfile host="app.diagrams.net" modified="2021-10-07T04:08:30.974Z" agent="5.0 (Windows NT 10.0; Win64; x64) AppleWebKit/537.36 (KHTML, like Gecko) Chrome/94.0.4606.71 Safari/537.36" etag="5F_Y-pGbvnOJHEIkAB_H" version="15.4.3" type="github">
  <diagram id="gcs44FJNl4Aj1mAAoInD" name="Page-1">
    <mxGraphModel dx="1447" dy="807" grid="1" gridSize="10" guides="1" tooltips="1" connect="1" arrows="1" fold="1" page="1" pageScale="1" pageWidth="827" pageHeight="1169" math="0" shadow="0">
      <root>
        <mxCell id="0" />
        <mxCell id="1" parent="0" />
        <mxCell id="AcxiEk3v24-VgJ1THo8D-18" value="" style="group" vertex="1" connectable="0" parent="1">
          <mxGeometry x="30" y="70" width="237" height="560" as="geometry" />
        </mxCell>
        <mxCell id="AcxiEk3v24-VgJ1THo8D-35" value="" style="group" vertex="1" connectable="0" parent="AcxiEk3v24-VgJ1THo8D-18">
          <mxGeometry width="237" height="520" as="geometry" />
        </mxCell>
        <mxCell id="AcxiEk3v24-VgJ1THo8D-5" value="" style="whiteSpace=wrap;html=1;fontSize=24;fillColor=#FFFFFF;dashed=1;strokeWidth=2;" vertex="1" parent="AcxiEk3v24-VgJ1THo8D-35">
          <mxGeometry x="7" y="37.142857142857146" width="230" height="482.8571428571429" as="geometry" />
        </mxCell>
        <mxCell id="AcxiEk3v24-VgJ1THo8D-7" value="&lt;font style=&quot;font-size: 18px&quot;&gt;FilterChain&lt;/font&gt;" style="text;html=1;resizable=0;autosize=1;align=center;verticalAlign=middle;points=[];fillColor=none;strokeColor=none;rounded=0;dashed=1;fontSize=24;" vertex="1" parent="AcxiEk3v24-VgJ1THo8D-35">
          <mxGeometry width="100" height="40" as="geometry" />
        </mxCell>
        <mxCell id="AcxiEk3v24-VgJ1THo8D-65" style="edgeStyle=orthogonalEdgeStyle;rounded=0;orthogonalLoop=1;jettySize=auto;html=1;entryX=0.5;entryY=1;entryDx=0;entryDy=0;fontSize=20;fontColor=#0000CC;" edge="1" parent="AcxiEk3v24-VgJ1THo8D-18" source="AcxiEk3v24-VgJ1THo8D-15" target="AcxiEk3v24-VgJ1THo8D-33">
          <mxGeometry relative="1" as="geometry" />
        </mxCell>
        <mxCell id="AcxiEk3v24-VgJ1THo8D-15" value="&lt;font style=&quot;font-size: 18px&quot;&gt;Servlet&lt;/font&gt;" style="rounded=0;whiteSpace=wrap;html=1;fontSize=22;fillColor=#FF9933;gradientColor=none;" vertex="1" parent="AcxiEk3v24-VgJ1THo8D-18">
          <mxGeometry x="28.5" y="457" width="180" height="50" as="geometry" />
        </mxCell>
        <mxCell id="AcxiEk3v24-VgJ1THo8D-60" value="" style="edgeStyle=orthogonalEdgeStyle;rounded=0;orthogonalLoop=1;jettySize=auto;html=1;fontSize=20;fontColor=#0000CC;entryX=0.5;entryY=0;entryDx=0;entryDy=0;" edge="1" parent="AcxiEk3v24-VgJ1THo8D-18" source="AcxiEk3v24-VgJ1THo8D-31" target="AcxiEk3v24-VgJ1THo8D-20">
          <mxGeometry relative="1" as="geometry" />
        </mxCell>
        <mxCell id="AcxiEk3v24-VgJ1THo8D-31" value="&lt;font style=&quot;font-size: 18px&quot;&gt;Fitler ...&lt;/font&gt;" style="rounded=0;whiteSpace=wrap;html=1;fontSize=22;fillColor=#FF9933;gradientColor=none;" vertex="1" parent="AcxiEk3v24-VgJ1THo8D-18">
          <mxGeometry x="28.5" y="141" width="180" height="50" as="geometry" />
        </mxCell>
        <mxCell id="AcxiEk3v24-VgJ1THo8D-32" value="" style="group" vertex="1" connectable="0" parent="AcxiEk3v24-VgJ1THo8D-18">
          <mxGeometry x="23" y="234" width="190" height="90" as="geometry" />
        </mxCell>
        <mxCell id="AcxiEk3v24-VgJ1THo8D-20" value="" style="rounded=0;whiteSpace=wrap;html=1;fontSize=22;fillColor=#FF9933;gradientColor=none;" vertex="1" parent="AcxiEk3v24-VgJ1THo8D-32">
          <mxGeometry x="5.5" width="180" height="90" as="geometry" />
        </mxCell>
        <mxCell id="AcxiEk3v24-VgJ1THo8D-21" value="DelegatingFilterProxy" style="text;html=1;resizable=0;autosize=1;align=center;verticalAlign=middle;points=[];fillColor=none;strokeColor=none;rounded=0;fontSize=18;color=red;fontColor=#0000CC;labelBackgroundColor=none;" vertex="1" parent="AcxiEk3v24-VgJ1THo8D-32">
          <mxGeometry y="4" width="190" height="30" as="geometry" />
        </mxCell>
        <mxCell id="AcxiEk3v24-VgJ1THo8D-30" value="&lt;font style=&quot;font-size: 18px&quot;&gt;FilterChainProxy&lt;/font&gt;" style="rounded=0;whiteSpace=wrap;html=1;fontSize=22;fillColor=#FFFF33;gradientColor=none;fontColor=#0000CC;" vertex="1" parent="AcxiEk3v24-VgJ1THo8D-32">
          <mxGeometry x="26" y="33" width="140" height="50" as="geometry" />
        </mxCell>
        <mxCell id="AcxiEk3v24-VgJ1THo8D-63" style="edgeStyle=orthogonalEdgeStyle;rounded=0;orthogonalLoop=1;jettySize=auto;html=1;entryX=0.5;entryY=1;entryDx=0;entryDy=0;fontSize=20;fontColor=#0000CC;" edge="1" parent="AcxiEk3v24-VgJ1THo8D-18" source="AcxiEk3v24-VgJ1THo8D-33" target="AcxiEk3v24-VgJ1THo8D-20">
          <mxGeometry relative="1" as="geometry" />
        </mxCell>
        <mxCell id="AcxiEk3v24-VgJ1THo8D-64" value="" style="edgeStyle=orthogonalEdgeStyle;rounded=0;orthogonalLoop=1;jettySize=auto;html=1;fontSize=20;fontColor=#0000CC;" edge="1" parent="AcxiEk3v24-VgJ1THo8D-18" source="AcxiEk3v24-VgJ1THo8D-33" target="AcxiEk3v24-VgJ1THo8D-15">
          <mxGeometry relative="1" as="geometry" />
        </mxCell>
        <mxCell id="AcxiEk3v24-VgJ1THo8D-33" value="&lt;font style=&quot;font-size: 18px&quot;&gt;Fitler ...&lt;/font&gt;" style="rounded=0;whiteSpace=wrap;html=1;fontSize=22;fillColor=#FF9933;gradientColor=none;" vertex="1" parent="AcxiEk3v24-VgJ1THo8D-18">
          <mxGeometry x="28.5" y="366" width="180" height="50" as="geometry" />
        </mxCell>
        <mxCell id="AcxiEk3v24-VgJ1THo8D-61" style="edgeStyle=orthogonalEdgeStyle;rounded=0;orthogonalLoop=1;jettySize=auto;html=1;entryX=0.5;entryY=1;entryDx=0;entryDy=0;fontSize=20;fontColor=#0000CC;" edge="1" parent="AcxiEk3v24-VgJ1THo8D-18" source="AcxiEk3v24-VgJ1THo8D-20" target="AcxiEk3v24-VgJ1THo8D-31">
          <mxGeometry relative="1" as="geometry" />
        </mxCell>
        <mxCell id="AcxiEk3v24-VgJ1THo8D-62" value="" style="edgeStyle=orthogonalEdgeStyle;rounded=0;orthogonalLoop=1;jettySize=auto;html=1;fontSize=20;fontColor=#0000CC;exitX=0.5;exitY=1;exitDx=0;exitDy=0;" edge="1" parent="AcxiEk3v24-VgJ1THo8D-18" source="AcxiEk3v24-VgJ1THo8D-20" target="AcxiEk3v24-VgJ1THo8D-33">
          <mxGeometry relative="1" as="geometry" />
        </mxCell>
        <mxCell id="AcxiEk3v24-VgJ1THo8D-36" value="" style="edgeStyle=orthogonalEdgeStyle;rounded=0;orthogonalLoop=1;jettySize=auto;html=1;fontSize=20;fontColor=#0000CC;fontStyle=1" edge="1" parent="1" source="AcxiEk3v24-VgJ1THo8D-1" target="AcxiEk3v24-VgJ1THo8D-14">
          <mxGeometry relative="1" as="geometry" />
        </mxCell>
        <mxCell id="AcxiEk3v24-VgJ1THo8D-1" value="&lt;font style=&quot;font-size: 24px&quot;&gt;Client&lt;/font&gt;" style="rounded=1;whiteSpace=wrap;html=1;fillColor=#CC00CC;" vertex="1" parent="1">
          <mxGeometry x="83" y="27" width="130" height="50" as="geometry" />
        </mxCell>
        <mxCell id="AcxiEk3v24-VgJ1THo8D-2" style="edgeStyle=orthogonalEdgeStyle;rounded=0;orthogonalLoop=1;jettySize=auto;html=1;exitX=0.5;exitY=1;exitDx=0;exitDy=0;fontSize=24;" edge="1" parent="1" source="AcxiEk3v24-VgJ1THo8D-1" target="AcxiEk3v24-VgJ1THo8D-1">
          <mxGeometry relative="1" as="geometry" />
        </mxCell>
        <mxCell id="AcxiEk3v24-VgJ1THo8D-38" value="" style="edgeStyle=orthogonalEdgeStyle;rounded=0;orthogonalLoop=1;jettySize=auto;html=1;fontSize=20;fontColor=#0000CC;entryX=0.5;entryY=0;entryDx=0;entryDy=0;" edge="1" parent="1" source="AcxiEk3v24-VgJ1THo8D-14" target="AcxiEk3v24-VgJ1THo8D-31">
          <mxGeometry relative="1" as="geometry">
            <mxPoint x="149" y="200" as="targetPoint" />
            <Array as="points" />
          </mxGeometry>
        </mxCell>
        <mxCell id="AcxiEk3v24-VgJ1THo8D-14" value="&lt;font style=&quot;font-size: 18px&quot;&gt;Fitler 0&lt;/font&gt;" style="rounded=0;whiteSpace=wrap;html=1;fontSize=22;fillColor=#FF9933;gradientColor=none;" vertex="1" parent="1">
          <mxGeometry x="58.5" y="120" width="180" height="50" as="geometry" />
        </mxCell>
        <mxCell id="AcxiEk3v24-VgJ1THo8D-101" style="edgeStyle=orthogonalEdgeStyle;rounded=0;orthogonalLoop=1;jettySize=auto;html=1;entryX=0;entryY=0.5;entryDx=0;entryDy=0;fontSize=20;fontColor=#000000;exitX=0.5;exitY=0;exitDx=0;exitDy=0;strokeWidth=2;" edge="1" parent="1" source="AcxiEk3v24-VgJ1THo8D-55" target="AcxiEk3v24-VgJ1THo8D-66">
          <mxGeometry relative="1" as="geometry" />
        </mxCell>
        <mxCell id="AcxiEk3v24-VgJ1THo8D-102" style="edgeStyle=orthogonalEdgeStyle;rounded=0;orthogonalLoop=1;jettySize=auto;html=1;entryX=0;entryY=0.608;entryDx=0;entryDy=0;entryPerimeter=0;fontSize=20;fontColor=#000000;exitX=0.5;exitY=1;exitDx=0;exitDy=0;strokeWidth=2;" edge="1" parent="1" source="AcxiEk3v24-VgJ1THo8D-55" target="AcxiEk3v24-VgJ1THo8D-92">
          <mxGeometry relative="1" as="geometry" />
        </mxCell>
        <mxCell id="AcxiEk3v24-VgJ1THo8D-103" style="edgeStyle=orthogonalEdgeStyle;rounded=0;orthogonalLoop=1;jettySize=auto;html=1;exitX=1;exitY=0.5;exitDx=0;exitDy=0;entryX=0;entryY=0.546;entryDx=0;entryDy=0;entryPerimeter=0;fontSize=20;fontColor=#000000;strokeWidth=2;" edge="1" parent="1" source="AcxiEk3v24-VgJ1THo8D-55" target="AcxiEk3v24-VgJ1THo8D-81">
          <mxGeometry relative="1" as="geometry" />
        </mxCell>
        <mxCell id="AcxiEk3v24-VgJ1THo8D-55" value="匹配请求 ？" style="rhombus;whiteSpace=wrap;html=1;labelBackgroundColor=none;fontSize=20;fontColor=#000000;fillColor=#FFFF33;gradientColor=none;" vertex="1" parent="1">
          <mxGeometry x="330" y="309" width="150" height="80" as="geometry" />
        </mxCell>
        <mxCell id="AcxiEk3v24-VgJ1THo8D-56" value="" style="edgeStyle=orthogonalEdgeStyle;rounded=0;orthogonalLoop=1;jettySize=auto;html=1;fontSize=20;fontColor=#0000CC;" edge="1" parent="1" source="AcxiEk3v24-VgJ1THo8D-20" target="AcxiEk3v24-VgJ1THo8D-55">
          <mxGeometry relative="1" as="geometry" />
        </mxCell>
        <mxCell id="AcxiEk3v24-VgJ1THo8D-57" value="" style="edgeStyle=orthogonalEdgeStyle;rounded=0;orthogonalLoop=1;jettySize=auto;html=1;fontSize=20;fontColor=#0000CC;" edge="1" parent="1" source="AcxiEk3v24-VgJ1THo8D-31" target="AcxiEk3v24-VgJ1THo8D-14">
          <mxGeometry relative="1" as="geometry" />
        </mxCell>
        <mxCell id="AcxiEk3v24-VgJ1THo8D-78" value="" style="group" vertex="1" connectable="0" parent="1">
          <mxGeometry x="600" y="4" width="207" height="263" as="geometry" />
        </mxCell>
        <mxCell id="AcxiEk3v24-VgJ1THo8D-68" value="" style="group;fillColor=#FFFFFF;" vertex="1" connectable="0" parent="AcxiEk3v24-VgJ1THo8D-78">
          <mxGeometry width="207" height="263" as="geometry" />
        </mxCell>
        <mxCell id="AcxiEk3v24-VgJ1THo8D-66" value="" style="whiteSpace=wrap;html=1;labelBackgroundColor=none;fontSize=20;fontColor=#0000CC;fillColor=#FFFFFF;gradientColor=none;dashed=1;strokeWidth=2;" vertex="1" parent="AcxiEk3v24-VgJ1THo8D-68">
          <mxGeometry y="33" width="180" height="240" as="geometry" />
        </mxCell>
        <mxCell id="AcxiEk3v24-VgJ1THo8D-67" value="SecurityFilterChain 0" style="text;html=1;resizable=0;autosize=1;align=center;verticalAlign=middle;points=[];fillColor=none;strokeColor=none;rounded=0;labelBackgroundColor=none;fontSize=20;fontColor=#0000CC;" vertex="1" parent="AcxiEk3v24-VgJ1THo8D-68">
          <mxGeometry x="-10" width="200" height="30" as="geometry" />
        </mxCell>
        <mxCell id="AcxiEk3v24-VgJ1THo8D-74" value="" style="edgeStyle=orthogonalEdgeStyle;rounded=0;orthogonalLoop=1;jettySize=auto;html=1;fontSize=20;fontColor=#000000;" edge="1" parent="AcxiEk3v24-VgJ1THo8D-68" source="AcxiEk3v24-VgJ1THo8D-69" target="AcxiEk3v24-VgJ1THo8D-70">
          <mxGeometry relative="1" as="geometry" />
        </mxCell>
        <mxCell id="AcxiEk3v24-VgJ1THo8D-69" value="&lt;font style=&quot;font-size: 18px&quot;&gt;Security Filter 0&lt;/font&gt;" style="rounded=0;whiteSpace=wrap;html=1;fontSize=22;fillColor=#FF9933;gradientColor=none;" vertex="1" parent="AcxiEk3v24-VgJ1THo8D-68">
          <mxGeometry x="20" y="43" width="140" height="50" as="geometry" />
        </mxCell>
        <mxCell id="AcxiEk3v24-VgJ1THo8D-76" value="" style="edgeStyle=orthogonalEdgeStyle;rounded=0;orthogonalLoop=1;jettySize=auto;html=1;fontSize=20;fontColor=#000000;" edge="1" parent="AcxiEk3v24-VgJ1THo8D-68" source="AcxiEk3v24-VgJ1THo8D-70" target="AcxiEk3v24-VgJ1THo8D-72">
          <mxGeometry relative="1" as="geometry" />
        </mxCell>
        <mxCell id="AcxiEk3v24-VgJ1THo8D-70" value="&lt;font style=&quot;font-size: 18px&quot;&gt;Security Filter ...&lt;/font&gt;" style="rounded=0;whiteSpace=wrap;html=1;fontSize=22;fillColor=#FF9933;gradientColor=none;" vertex="1" parent="AcxiEk3v24-VgJ1THo8D-68">
          <mxGeometry x="20" y="128" width="140" height="50" as="geometry" />
        </mxCell>
        <mxCell id="AcxiEk3v24-VgJ1THo8D-77" style="edgeStyle=orthogonalEdgeStyle;rounded=0;orthogonalLoop=1;jettySize=auto;html=1;entryX=0.5;entryY=1;entryDx=0;entryDy=0;fontSize=20;fontColor=#000000;" edge="1" parent="AcxiEk3v24-VgJ1THo8D-68" source="AcxiEk3v24-VgJ1THo8D-72" target="AcxiEk3v24-VgJ1THo8D-70">
          <mxGeometry relative="1" as="geometry" />
        </mxCell>
        <mxCell id="AcxiEk3v24-VgJ1THo8D-72" value="&lt;font style=&quot;font-size: 18px&quot;&gt;Security Filter N&lt;/font&gt;" style="rounded=0;whiteSpace=wrap;html=1;fontSize=22;fillColor=#FF9933;gradientColor=none;" vertex="1" parent="AcxiEk3v24-VgJ1THo8D-68">
          <mxGeometry x="20" y="213" width="140" height="50" as="geometry" />
        </mxCell>
        <mxCell id="AcxiEk3v24-VgJ1THo8D-75" style="edgeStyle=orthogonalEdgeStyle;rounded=0;orthogonalLoop=1;jettySize=auto;html=1;fontSize=20;fontColor=#000000;" edge="1" parent="AcxiEk3v24-VgJ1THo8D-78" source="AcxiEk3v24-VgJ1THo8D-70">
          <mxGeometry relative="1" as="geometry">
            <mxPoint x="90" y="93" as="targetPoint" />
          </mxGeometry>
        </mxCell>
        <mxCell id="AcxiEk3v24-VgJ1THo8D-79" value="" style="group" vertex="1" connectable="0" parent="1">
          <mxGeometry x="600" y="299" width="207" height="263" as="geometry" />
        </mxCell>
        <mxCell id="AcxiEk3v24-VgJ1THo8D-80" value="" style="group;fillColor=#FFFFFF;" vertex="1" connectable="0" parent="AcxiEk3v24-VgJ1THo8D-79">
          <mxGeometry width="207" height="263" as="geometry" />
        </mxCell>
        <mxCell id="AcxiEk3v24-VgJ1THo8D-81" value="" style="whiteSpace=wrap;html=1;labelBackgroundColor=none;fontSize=20;fontColor=#0000CC;fillColor=#FFFFFF;gradientColor=none;dashed=1;strokeWidth=2;" vertex="1" parent="AcxiEk3v24-VgJ1THo8D-80">
          <mxGeometry y="33" width="180" height="240" as="geometry" />
        </mxCell>
        <mxCell id="AcxiEk3v24-VgJ1THo8D-82" value="SecurityFilterChain ..." style="text;html=1;resizable=0;autosize=1;align=center;verticalAlign=middle;points=[];fillColor=none;strokeColor=none;rounded=0;labelBackgroundColor=none;fontSize=20;fontColor=#0000CC;" vertex="1" parent="AcxiEk3v24-VgJ1THo8D-80">
          <mxGeometry x="-15" width="210" height="30" as="geometry" />
        </mxCell>
        <mxCell id="AcxiEk3v24-VgJ1THo8D-83" value="" style="edgeStyle=orthogonalEdgeStyle;rounded=0;orthogonalLoop=1;jettySize=auto;html=1;fontSize=20;fontColor=#000000;" edge="1" parent="AcxiEk3v24-VgJ1THo8D-80" source="AcxiEk3v24-VgJ1THo8D-84" target="AcxiEk3v24-VgJ1THo8D-86">
          <mxGeometry relative="1" as="geometry" />
        </mxCell>
        <mxCell id="AcxiEk3v24-VgJ1THo8D-84" value="&lt;font style=&quot;font-size: 18px&quot;&gt;Security Filter 0&lt;/font&gt;" style="rounded=0;whiteSpace=wrap;html=1;fontSize=22;fillColor=#FF9933;gradientColor=none;" vertex="1" parent="AcxiEk3v24-VgJ1THo8D-80">
          <mxGeometry x="20" y="43" width="140" height="50" as="geometry" />
        </mxCell>
        <mxCell id="AcxiEk3v24-VgJ1THo8D-85" value="" style="edgeStyle=orthogonalEdgeStyle;rounded=0;orthogonalLoop=1;jettySize=auto;html=1;fontSize=20;fontColor=#000000;" edge="1" parent="AcxiEk3v24-VgJ1THo8D-80" source="AcxiEk3v24-VgJ1THo8D-86" target="AcxiEk3v24-VgJ1THo8D-88">
          <mxGeometry relative="1" as="geometry" />
        </mxCell>
        <mxCell id="AcxiEk3v24-VgJ1THo8D-86" value="&lt;font style=&quot;font-size: 18px&quot;&gt;Security Filter ...&lt;/font&gt;" style="rounded=0;whiteSpace=wrap;html=1;fontSize=22;fillColor=#FF9933;gradientColor=none;" vertex="1" parent="AcxiEk3v24-VgJ1THo8D-80">
          <mxGeometry x="20" y="128" width="140" height="50" as="geometry" />
        </mxCell>
        <mxCell id="AcxiEk3v24-VgJ1THo8D-87" style="edgeStyle=orthogonalEdgeStyle;rounded=0;orthogonalLoop=1;jettySize=auto;html=1;entryX=0.5;entryY=1;entryDx=0;entryDy=0;fontSize=20;fontColor=#000000;" edge="1" parent="AcxiEk3v24-VgJ1THo8D-80" source="AcxiEk3v24-VgJ1THo8D-88" target="AcxiEk3v24-VgJ1THo8D-86">
          <mxGeometry relative="1" as="geometry" />
        </mxCell>
        <mxCell id="AcxiEk3v24-VgJ1THo8D-88" value="&lt;font style=&quot;font-size: 18px&quot;&gt;Security Filter N&lt;/font&gt;" style="rounded=0;whiteSpace=wrap;html=1;fontSize=22;fillColor=#FF9933;gradientColor=none;" vertex="1" parent="AcxiEk3v24-VgJ1THo8D-80">
          <mxGeometry x="20" y="213" width="140" height="50" as="geometry" />
        </mxCell>
        <mxCell id="AcxiEk3v24-VgJ1THo8D-89" style="edgeStyle=orthogonalEdgeStyle;rounded=0;orthogonalLoop=1;jettySize=auto;html=1;fontSize=20;fontColor=#000000;" edge="1" parent="AcxiEk3v24-VgJ1THo8D-79" source="AcxiEk3v24-VgJ1THo8D-86">
          <mxGeometry relative="1" as="geometry">
            <mxPoint x="90" y="93" as="targetPoint" />
          </mxGeometry>
        </mxCell>
        <mxCell id="AcxiEk3v24-VgJ1THo8D-90" value="" style="group" vertex="1" connectable="0" parent="1">
          <mxGeometry x="600" y="600" width="207" height="263" as="geometry" />
        </mxCell>
        <mxCell id="AcxiEk3v24-VgJ1THo8D-91" value="" style="group;fillColor=#FFFFFF;" vertex="1" connectable="0" parent="AcxiEk3v24-VgJ1THo8D-90">
          <mxGeometry width="207" height="263" as="geometry" />
        </mxCell>
        <mxCell id="AcxiEk3v24-VgJ1THo8D-92" value="" style="whiteSpace=wrap;html=1;labelBackgroundColor=none;fontSize=20;fontColor=#0000CC;fillColor=#FFFFFF;gradientColor=none;dashed=1;strokeWidth=2;" vertex="1" parent="AcxiEk3v24-VgJ1THo8D-91">
          <mxGeometry y="33" width="180" height="240" as="geometry" />
        </mxCell>
        <mxCell id="AcxiEk3v24-VgJ1THo8D-93" value="SecurityFilterChain N" style="text;html=1;resizable=0;autosize=1;align=center;verticalAlign=middle;points=[];fillColor=none;strokeColor=none;rounded=0;labelBackgroundColor=none;fontSize=20;fontColor=#0000CC;" vertex="1" parent="AcxiEk3v24-VgJ1THo8D-91">
          <mxGeometry x="-10" width="200" height="30" as="geometry" />
        </mxCell>
        <mxCell id="AcxiEk3v24-VgJ1THo8D-94" value="" style="edgeStyle=orthogonalEdgeStyle;rounded=0;orthogonalLoop=1;jettySize=auto;html=1;fontSize=20;fontColor=#000000;" edge="1" parent="AcxiEk3v24-VgJ1THo8D-91" source="AcxiEk3v24-VgJ1THo8D-95" target="AcxiEk3v24-VgJ1THo8D-97">
          <mxGeometry relative="1" as="geometry" />
        </mxCell>
        <mxCell id="AcxiEk3v24-VgJ1THo8D-95" value="&lt;font style=&quot;font-size: 18px&quot;&gt;Security Filter 0&lt;/font&gt;" style="rounded=0;whiteSpace=wrap;html=1;fontSize=22;fillColor=#FF9933;gradientColor=none;" vertex="1" parent="AcxiEk3v24-VgJ1THo8D-91">
          <mxGeometry x="20" y="43" width="140" height="50" as="geometry" />
        </mxCell>
        <mxCell id="AcxiEk3v24-VgJ1THo8D-96" value="" style="edgeStyle=orthogonalEdgeStyle;rounded=0;orthogonalLoop=1;jettySize=auto;html=1;fontSize=20;fontColor=#000000;" edge="1" parent="AcxiEk3v24-VgJ1THo8D-91" source="AcxiEk3v24-VgJ1THo8D-97" target="AcxiEk3v24-VgJ1THo8D-99">
          <mxGeometry relative="1" as="geometry" />
        </mxCell>
        <mxCell id="AcxiEk3v24-VgJ1THo8D-97" value="&lt;font style=&quot;font-size: 18px&quot;&gt;Security Filter ...&lt;/font&gt;" style="rounded=0;whiteSpace=wrap;html=1;fontSize=22;fillColor=#FF9933;gradientColor=none;" vertex="1" parent="AcxiEk3v24-VgJ1THo8D-91">
          <mxGeometry x="20" y="128" width="140" height="50" as="geometry" />
        </mxCell>
        <mxCell id="AcxiEk3v24-VgJ1THo8D-98" style="edgeStyle=orthogonalEdgeStyle;rounded=0;orthogonalLoop=1;jettySize=auto;html=1;entryX=0.5;entryY=1;entryDx=0;entryDy=0;fontSize=20;fontColor=#000000;" edge="1" parent="AcxiEk3v24-VgJ1THo8D-91" source="AcxiEk3v24-VgJ1THo8D-99" target="AcxiEk3v24-VgJ1THo8D-97">
          <mxGeometry relative="1" as="geometry" />
        </mxCell>
        <mxCell id="AcxiEk3v24-VgJ1THo8D-99" value="&lt;font style=&quot;font-size: 18px&quot;&gt;Security Filter N&lt;/font&gt;" style="rounded=0;whiteSpace=wrap;html=1;fontSize=22;fillColor=#FF9933;gradientColor=none;" vertex="1" parent="AcxiEk3v24-VgJ1THo8D-91">
          <mxGeometry x="20" y="213" width="140" height="50" as="geometry" />
        </mxCell>
        <mxCell id="AcxiEk3v24-VgJ1THo8D-100" style="edgeStyle=orthogonalEdgeStyle;rounded=0;orthogonalLoop=1;jettySize=auto;html=1;fontSize=20;fontColor=#000000;" edge="1" parent="AcxiEk3v24-VgJ1THo8D-90" source="AcxiEk3v24-VgJ1THo8D-97">
          <mxGeometry relative="1" as="geometry">
            <mxPoint x="90" y="93" as="targetPoint" />
          </mxGeometry>
        </mxCell>
      </root>
    </mxGraphModel>
  </diagram>
</mxfile>
